<svg height="512" viewBox="0 0 60 60" width="512" xmlns="http://www.w3.org/2000/svg"><g id="007---Question-and-Answer"><path id="Shape" d="m55 0h-50c-2.76005315.00330612-4.99669388 2.23994685-5 5v39c.00330612 2.7600532 2.23994685 4.9966939 5 5 16.236 0 15.059-.064 15.059.116.0027237 1.6679724-.5188516 3.2946156-1.491 4.65l-2.193 3.071c-.4354943.6092766-.4941029 1.4108022-.151869 2.0769473s1.0279546 1.0852693 1.776869 1.0860527h24c.7489246-.0003022 1.4349218-.4189967 1.777579-1.0849353s.2845463-1.4675123-.150579-2.0770647l-2.193-3.072c-.9956282-1.3875823-1.5190218-3.0583751-1.493-4.766h15.059c2.7600532-.0033061 4.9966939-2.2399468 5-5v-39c-.0033061-2.76005315-2.2399468-4.99669388-5-5zm3 5v34h-16v-37h13c1.6568542 0 3 1.34314575 3 3zm-53-3h35v37h-38v-34c0-1.65685425 1.34314575-3 3-3zm37.005 56h-24.005c2.258-3.162 4.057-5.08 4.057-8.884 0-.18-1.223-.116 15.882-.116.002 3.933 1.706 5.705 4.066 9zm12.995-11h-50c-1.65685425 0-3-1.3431458-3-3v-3h56v3c0 1.6568542-1.3431458 3-3 3z"/><path id="Shape" d="m32 43h-4c-.5522847 0-1 .4477153-1 1s.4477153 1 1 1h4c.5522847 0 1-.4477153 1-1s-.4477153-1-1-1z"/><path id="Shape" d="m50 7h5c.5522847 0 1-.44771525 1-1s-.4477153-1-1-1h-5c-.5522847 0-1 .44771525-1 1s.4477153 1 1 1z"/><path id="Shape" d="m45 7h1c.5522847 0 1-.44771525 1-1s-.4477153-1-1-1h-1c-.5522847 0-1 .44771525-1 1s.4477153 1 1 1z"/><path id="Shape" d="m50 11h5c.5522847 0 1-.4477153 1-1 0-.55228475-.4477153-1-1-1h-5c-.5522847 0-1 .44771525-1 1 0 .5522847.4477153 1 1 1z"/><path id="Shape" d="m50 15h5c.5522847 0 1-.4477153 1-1s-.4477153-1-1-1h-5c-.5522847 0-1 .4477153-1 1s.4477153 1 1 1z"/><path id="Shape" d="m45 15h1c.5522847 0 1-.4477153 1-1s-.4477153-1-1-1h-1c-.5522847 0-1 .4477153-1 1s.4477153 1 1 1z"/><path id="Shape" d="m50 19h5c.5522847 0 1-.4477153 1-1s-.4477153-1-1-1h-5c-.5522847 0-1 .4477153-1 1s.4477153 1 1 1z"/><path id="Shape" d="m45 19h1c.5522847 0 1-.4477153 1-1s-.4477153-1-1-1h-1c-.5522847 0-1 .4477153-1 1s.4477153 1 1 1z"/><path id="Shape" d="m50 23h5c.5522847 0 1-.4477153 1-1s-.4477153-1-1-1h-5c-.5522847 0-1 .4477153-1 1s.4477153 1 1 1z"/><path id="Shape" d="m50 27h5c.5522847 0 1-.4477153 1-1s-.4477153-1-1-1h-5c-.5522847 0-1 .4477153-1 1s.4477153 1 1 1z"/><path id="Shape" d="m50 31h5c.5522847 0 1-.4477153 1-1s-.4477153-1-1-1h-5c-.5522847 0-1 .4477153-1 1s.4477153 1 1 1z"/><path id="Shape" d="m45 23h1c.5522847 0 1-.4477153 1-1s-.4477153-1-1-1h-1c-.5522847 0-1 .4477153-1 1s.4477153 1 1 1z"/><path id="Shape" d="m50 35h5c.5522847 0 1-.4477153 1-1s-.4477153-1-1-1h-5c-.5522847 0-1 .4477153-1 1s.4477153 1 1 1z"/><path id="Shape" d="m46 33h-1c-.5522847 0-1 .4477153-1 1s.4477153 1 1 1h1c.5522847 0 1-.4477153 1-1s-.4477153-1-1-1z"/><path id="Shape" d="m6.155 25.879.5 2.492c.14962983.7203619.68160143 1.3010093 1.38614386 1.5129771.70454243.2119677 1.46858933.0212388 1.99085614-.4969771l3.382-3.387h4.586v5c0 1.6568542 1.3431458 3 3 3h7.586l3.386 3.386c.5215767.521344 1.2877291.7133627 1.993535.4996342s1.2367285-.7985207 1.381465-1.5216342l.5-2.485c1.2768707-.3757916 2.1534662-1.5479787 2.153-2.879v-16c0-1.6568542-1.3431458-3-3-3h-11v-5c0-1.65685425-1.3431458-3-3-3h-14c-1.65685425 0-3 1.34314575-3 3v16c.00178257 1.3309132.87853257 2.5022187 2.155 2.879zm29.845-10.879v16c0 .5522847-.4477153 1-1 1-.4752686-.000097-.8849463.3343337-.98.8l-.634 3.168-3.679-3.679c-.1881457-.1860834-.442378-.2900058-.707-.289h-8c-.5522847 0-1-.4477153-1-1v-16c0-.5522847.4477153-1 1-1h14c.5522847 0 1 .4477153 1 1zm-30-8c0-.55228475.44771525-1 1-1h14c.5522847 0 1 .44771525 1 1v5h-1c-1.6568542 0-3 1.3431458-3 3v9h-5c-.2651948.0000566-.5195073.1054506-.707.293l-3.683 3.682-.63-3.17c-.09297721-.4676539-.50319314-.804617-.98-.805-.55228475 0-1-.4477153-1-1z"/><path id="Shape" d="m12.112 21.446c-.4291253 0-.777.3478747-.777.777s.3478747.777.777.777.777-.3478747.777-.777c0-.2060732-.0818623-.4037062-.227578-.549422-.1457158-.1457157-.3433488-.227578-.549422-.227578z"/><path id="Shape" d="m8.862 12.333c.262866.0373608.52979907-.0313491.7419574-.1909838.21215834-.1596346.3521237-.3970878.3890426-.6600162.1060427-.9529519.742484-1.76370765 1.643-2.093.8297057-.36207064 1.7927879-.22407061 2.4874334.3564243.6946455.5804949 1.0015107 1.5037528.7925666 2.3845757-.3188382.7884654-.825537 1.4870644-1.476 2.035-2.279 2.341-2.257 3.237-2.257 4.949 0 .5522847.4477153 1 1 1s1-.4477153 1-1c0-1.271-.164-1.65 1.72-3.584.8743888-.7598544 1.538375-1.7320706 1.928-2.823.4330628-1.6082583-.0826104-3.32301096-1.3309106-4.42563728-1.2483002-1.10262631-3.0135977-1.40266006-4.5560894-.77436272-1.59109933.58552391-2.72205767 2.01050827-2.931 3.693-.03796882.2628776.0302022.5300609.18947543.7426129.15927323.2125519.39656238.3530085.65952457.3903871z"/><path id="Shape" d="m21.553 29.867c.237733.1203236.5136549.1407966.7665424.0568762.2528876-.0839204.461827-.2652938.5804576-.5038762l2.2-4.42h5.8l2.2 4.42c.1607695.3197527.4799127.5294469.8372114.5500927.3572988.0206459.6984708-.1508931.895-.45.1965292-.2991068.2185581-.68034.0577886-1.0000927-.474-.946.355.693-6-12-.187968-.3152706-.5279475-.5083906-.895-.5083906s-.707032.19312-.895.5083906l-6 12c-.1199018.23847-.139492.5149779-.0544098.7679708s.2677751.4614723.5074098.5790292zm6.447-10.659 1.9 3.792h-3.8z"/></g></svg>